<svg width="692" height="116" viewBox="0 0 692 116" fill="none" xmlns="http://www.w3.org/2000/svg" role="img" aria-label="monktensor">
  <title>monktensor</title>
  <defs>
    <linearGradient id="mt-warm" x1="40" y1="70" x2="200" y2="70" gradientUnits="userSpaceOnUse">
      <stop offset="0" stop-color="#E9A294"/>
      <stop offset="0.4" stop-color="#C2A4CD"/>
      <stop offset="0.7" stop-color="#A2ABDE"/>
      <stop offset="1" stop-color="#88B2EC"/>
    </linearGradient>
    <linearGradient id="mt-sheen" x1="40" y1="50" x2="200" y2="50" gradientUnits="userSpaceOnUse">
      <stop offset="0" stop-color="#ffffff" stop-opacity="0.55"/>
      <stop offset="1" stop-color="#ffffff" stop-opacity="0.15"/>
    </linearGradient>
  </defs>
  <g transform="translate(-14.69,1.46) scale(0.80769)">
    <path d="M120,70 C100,30 50,30 50,70 C50,110 100,110 120,70 C140,30 190,30 190,70 C190,110 140,110 120,70 Z"
          stroke="url(#mt-warm)" stroke-width="24" stroke-linecap="round" stroke-linejoin="round" fill="none"/>
    <path d="M120,66 C101,32 54,33 53,66 M120,66 C139,32 186,33 187,66"
          stroke="url(#mt-sheen)" stroke-width="6" stroke-linecap="round" fill="none"/>
  </g>
  <g transform="translate(182.46,25.25) scale(0.092000,-0.092000) translate(-62.10,-700.00)" fill="#322E45">
      <g transform="translate(0.00,0)"><path d="M62.1002197265625 0V500H167.119384765625L171.83935546875 432.72991943359375Q195.26934814453125 471.5799560546875 231.12435913085938 491.78997802734375Q266.9793701171875 512 312.96942138671875 512Q373.2593994140625 512 414.96942138671875 485.219970703125Q456.679443359375 458.43994140625 475.679443359375 402.8798828125Q497.96942138671875 455.86993408203125 538.0394287109375 483.9349670410156Q578.1094360351562 512 632.239501953125 512Q718.5394287109375 512 765.6744689941406 456.42999267578125Q812.8095092773438 400.8599853515625 812.239501953125 286V0H700.640380859375V256Q700.640380859375 315.7803955078125 687.8703002929688 348.2455749511719Q675.1002197265625 380.71075439453125 653.1950988769531 393.8457946777344Q631.2899780273438 406.9808349609375 602.0298461914062 407.41082763671875Q549.7796630859375 408.27081298828125 521.3745422363281 370.1755676269531Q492.96942138671875 332.080322265625 492.96942138671875 260.86993408203125V0H381.37030029296875V256Q381.37030029296875 315.7803955078125 368.6002197265625 348.2455749511719Q355.83013916015625 380.71075439453125 333.9250183105469 393.8457946777344Q312.0198974609375 406.9808349609375 282.759765625 407.41082763671875Q230.50958251953125 408.27081298828125 202.10446166992188 370.1755676269531Q173.6993408203125 332.080322265625 173.6993408203125 260.86993408203125V0Z"/></g>
      <g transform="translate(864.00,0)"><path d="M291.9312111322134 -12Q216.51237366097104 -12 158.3770197768884 21.5Q100.24166589280578 55 67.24592449913726 114.0Q34.25018310546875 173 34.25018310546875 250Q34.25018310546875 327 66.71739464788861 386.0Q99.18460619030847 445 157.31138814528597 478.5Q215.43817010026348 512 289.7985578264509 512Q365.2062749572325 512 423.33305691221 478.5Q481.4598388671875 445 513.9648132324219 386.0Q546.4697875976562 327 546.4697875976562 250Q546.4697875976562 173 513.9977881308714 114.0Q481.52578866408646 55 423.9141767068875 21.5Q366.3025647496885 -12 291.9312111322134 -12ZM291.8599853515625 90.72918701171875Q333.4254430551998 90.72918701171875 364.9844016820355 111.1189287710881Q396.54336030887123 131.50867053045744 414.6320317169356 167.28689663652062Q432.720703125 203.06512274258378 432.720703125 250Q432.720703125 296.9348772574162 414.5902141746617 332.7131033634794Q396.45972522432334 368.49132946954256 364.0562981641442 388.8810712289119Q331.6528711039651 409.27081298828125 289.99132202659194 409.27081298828125Q248.32977294921875 409.27081298828125 216.30118854229266 388.8933952673158Q184.27260413536658 368.5159775463503 166.1359358567458 332.7593766397505Q147.999267578125 297.00277573315066 147.999267578125 250.09626701696595Q147.999267578125 203.18975830078125 166.40936279296875 167.4395751953125Q184.8194580078125 131.68939208984375 217.39700980808425 111.20928955078125Q249.97456160835597 90.72918701171875 291.8599853515625 90.72918701171875Z"/></g>
      <g transform="translate(1445.00,0)"><path d="M62.1002197265625 0V500H167.119384765625L171.83935546875 429.30987548828125Q196.40936279296875 469.43994140625 234.82940673828125 490.719970703125Q273.24945068359375 512 323.22955322265625 512Q382.51953125 512 425.0845642089844 488.07000732421875Q467.64959716796875 464.1400146484375 490.56964111328125 413.57000732421875Q513.4896850585938 363 512.919677734375 282.00994873046875V0H401.320556640625V256Q401.320556640625 315.7803955078125 387.41046142578125 348.2455749511719Q373.5003662109375 380.71075439453125 349.03021240234375 393.8457946777344Q324.56005859375 406.9808349609375 292.44989013671875 407.41082763671875Q235.6396484375 408.27081298828125 204.66949462890625 370.1755676269531Q173.6993408203125 332.080322265625 173.6993408203125 260.86993408203125V0Z"/></g>
      <g transform="translate(2009.00,0)"><path d="M62.1002197265625 0V700H173.6993408203125V297.98931884765625L361.13006591796875 500H495.88909912109375L308.30914306640625 293.25018310546875L512.7291870117188 0H379.83013916015625L236.34967041015625 212.8408203125L173.6993408203125 145.19049072265625V0Z"/></g>
      <g transform="translate(2526.00,0)"><path d="M261.159912109375 -12Q181.840087890625 -12 140.2601318359375 27.724945068359375Q98.68017578125 67.44989013671875 98.68017578125 140.8997802734375V404.15069580078125H15.7000732421875V500H98.68017578125V656H210.279296875V500H345.19970703125V404.15069580078125H210.279296875V161.96942138671875Q210.279296875 127.12933349609375 226.82940673828125 109.14425659179688Q243.3795166015625 91.1591796875 274.919677734375 91.1591796875Q285.19970703125 91.1591796875 296.9147033691406 95.30416870117188Q308.62969970703125 99.44915771484375 324.1798095703125 110.14923095703125L364.6595458984375 24.60980224609375Q339.3795166015625 6.88983154296875 313.20965576171875 -2.555084228515625Q287.039794921875 -12 261.159912109375 -12Z"/></g>
      <g transform="translate(2919.00,0)"><path d="M285.26653102746695 -12Q211.83316378433366 -12 155.25813835198372 21.5Q98.68311291963377 55 66.46642929806714 114.0Q34.24974567650051 173 34.24974567650051 250Q34.24974567650051 327 67.04145473041709 386.0Q99.83316378433368 445 157.19989827060022 478.5Q214.56663275686674 512 288.8667344862665 512Q356.28331637843337 512 410.08341810783315 477.5Q463.88351983723294 443 495.25864699898267 378.1998982706002Q526.6337741607324 313.39979654120043 526.6337741607324 222.93285859613428H149.86775178026448Q154.86775178026448 160.18362156663275 196.4092065106816 124.16734486266532Q237.9506612410987 88.15106815869787 295.3001017293998 88.15106815869787Q341.11648016276706 88.15106815869787 371.22456765005086 108.76754832146491Q401.3326551373347 129.38402848423195 417.882502543235 162.2004069175992L516.616988809766 120.45015259409969Q496.1836215666328 79.86673448626654 463.53357070193283 49.93336724313327Q430.88351983723294 20 386.3001017293998 4.0Q341.71668362156663 -12 285.26653102746695 -12ZM156.58443540183112 308.7502543234995H405.7324516785351Q402.7324516785351 344.56663275686674 384.882502543235 368.2413530010173Q367.03255340793487 391.91607324516787 340.9160732451678 404.03255340793487Q314.7995930824008 416.14903357070193 286 416.14903357070193Q258.2004069175992 416.14903357070193 229.59231943031537 404.39089521871824Q200.98423194303155 392.6327568667345 180.78433367243133 368.8163784333673Q160.58443540183112 345 156.58443540183112 308.7502543234995Z"/></g>
      <g transform="translate(3470.00,0)"><path d="M62.1002197265625 0V500H167.119384765625L171.83935546875 429.30987548828125Q196.40936279296875 469.43994140625 234.82940673828125 490.719970703125Q273.24945068359375 512 323.22955322265625 512Q382.51953125 512 425.0845642089844 488.07000732421875Q467.64959716796875 464.1400146484375 490.56964111328125 413.57000732421875Q513.4896850585938 363 512.919677734375 282.00994873046875V0H401.320556640625V256Q401.320556640625 315.7803955078125 387.41046142578125 348.2455749511719Q373.5003662109375 380.71075439453125 349.03021240234375 393.8457946777344Q324.56005859375 406.9808349609375 292.44989013671875 407.41082763671875Q235.6396484375 408.27081298828125 204.66949462890625 370.1755676269531Q173.6993408203125 332.080322265625 173.6993408203125 260.86993408203125V0Z"/></g>
      <g transform="translate(4034.00,0)"><path d="M244.28331637843337 -12Q193.73346897253307 -12 152.01678535096644 3.2082909460834177Q110.3001017293998 18.416581892166835 80.14165818921668 45.77492370295015Q49.98321464903357 73.13326551373346 34.24974567650051 110.01678535096643L130.53407934893184 152.9506612410987Q146.10071210579858 125.26754832146491 175.3588504577823 106.35096642929807Q204.616988809766 87.43438453713122 241.16683621566634 87.43438453713122Q279.8331637843337 87.43438453713122 303.21617497456765 100.47583926754831Q326.5991861648016 113.51729399796541 326.5991861648016 137.7502543234995Q326.5991861648016 160.8499491353001 308.55773143438455 173.45803662258393Q290.51627670396743 186.06612410986776 257.58341810783315 194.33265513733468L210.73346897253307 206.61597151576805Q140.1500508646999 225.33265513733468 100.06663275686674 264.8494404883011Q59.98321464903357 304.36622583926754 59.98321464903357 355.2497456765005Q59.98321464903357 429.9832146490336 108.34994913530011 470.9916073245168Q156.71668362156663 512 248 512Q293.8667344862665 512 332.6668362156663 498.42497456765005Q371.46693794506615 484.8499491353001 399.192014242116 460.41658189216685Q426.9170905391658 435.9832146490336 438.2004069175992 403.26653102746695L344.7828077314344 360.91607324516787Q335.23296032553407 386.2990844354018 307.09969481180065 399.7906917599186Q278.96642929806717 413.2822990844354 245.4501525940997 413.2822990844354Q211.08392675483213 413.2822990844354 192.05086469989828 398.66581892166835Q173.0178026449644 384.04933875890134 173.0178026449644 358.0996948118006Q173.0178026449644 342.5498474059003 189.99262461851475 330.3667344862665Q206.9674465920651 318.1836215666328 239.48372329603257 310.2004069175992L298.2507629704985 295.61698880976604Q347.2507629704985 283.61698880976604 378.16734486266535 258.2502543234995Q409.08392675483213 232.88351983723297 424.000508646999 201.37512716174973Q438.9170905391658 169.86673448626652 438.9170905391658 137.73346897253307Q438.9170905391658 92.73346897253306 413.4086978636826 58.8001017293998Q387.9003051881994 24.86673448626653 344.10020345879957 6.433367243133265Q300.3001017293998 -12 244.28331637843337 -12Z"/></g>
      <g transform="translate(4500.00,0)"><path d="M291.9312111322134 -12Q216.51237366097104 -12 158.3770197768884 21.5Q100.24166589280578 55 67.24592449913726 114.0Q34.25018310546875 173 34.25018310546875 250Q34.25018310546875 327 66.71739464788861 386.0Q99.18460619030847 445 157.31138814528597 478.5Q215.43817010026348 512 289.7985578264509 512Q365.2062749572325 512 423.33305691221 478.5Q481.4598388671875 445 513.9648132324219 386.0Q546.4697875976562 327 546.4697875976562 250Q546.4697875976562 173 513.9977881308714 114.0Q481.52578866408646 55 423.9141767068875 21.5Q366.3025647496885 -12 291.9312111322134 -12ZM291.8599853515625 90.72918701171875Q333.4254430551998 90.72918701171875 364.9844016820355 111.1189287710881Q396.54336030887123 131.50867053045744 414.6320317169356 167.28689663652062Q432.720703125 203.06512274258378 432.720703125 250Q432.720703125 296.9348772574162 414.5902141746617 332.7131033634794Q396.45972522432334 368.49132946954256 364.0562981641442 388.8810712289119Q331.6528711039651 409.27081298828125 289.99132202659194 409.27081298828125Q248.32977294921875 409.27081298828125 216.30118854229266 388.8933952673158Q184.27260413536658 368.5159775463503 166.1359358567458 332.7593766397505Q147.999267578125 297.00277573315066 147.999267578125 250.09626701696595Q147.999267578125 203.18975830078125 166.40936279296875 167.4395751953125Q184.8194580078125 131.68939208984375 217.39700980808425 111.20928955078125Q249.97456160835597 90.72918701171875 291.8599853515625 90.72918701171875Z"/></g>
      <g transform="translate(5081.00,0)"><path d="M62.1002197265625 0V500H173.6993408203125V409.4200439453125Q203.98931884765625 456.4200439453125 251.77432250976562 479.21002197265625Q299.559326171875 502 350.6993408203125 502V394.97088623046875Q305.40936279296875 394.97088623046875 264.90936279296875 382.4808349609375Q224.40936279296875 369.99078369140625 199.05435180664062 341.8756408691406Q173.6993408203125 313.760498046875 173.6993408203125 267.53021240234375V0Z"/></g>
  </g>
</svg>
